<svg xmlns="http://www.w3.org/2000/svg" xmlns:xlink="http://www.w3.org/1999/xlink" version="1.1" x="0px" y="0px" viewBox="0 0 100 125" enable-background="new 0 0 100 100" xml:space="preserve"><path fill="#000000" d="M43.319,1.109"/><g><path fill="#000000" d="M52.219,98.893"/></g><g><path d="M59.939,25.262l1.562-2.678l0.143-0.285l-1.645-0.96L59.7,21.179l-1.713,2.939l0.312,0.161   c0.413,0.221,0.854,0.478,1.341,0.794L59.939,25.262z"/><path d="M32.535,28.555l-0.282-0.143l-0.962,1.645l-0.158,0.298l2.935,1.713l0.165-0.312c0.225-0.427,0.485-0.868,0.792-1.341   l0.19-0.298L32.535,28.555z"/><path d="M65.938,32.069l2.674-1.562l0.262-0.174l-0.96-1.649l-0.197-0.275l-2.926,1.708l0.188,0.298   c0.317,0.487,0.579,0.928,0.795,1.341L65.938,32.069z"/><path d="M40.361,25.073c0.487-0.312,0.926-0.574,1.344-0.794l0.312-0.161l-1.559-2.673l-0.177-0.266l-1.649,0.964l-0.276,0.193   l1.709,2.926L40.361,25.073z"/><path d="M40.01,58.764l0.298,0.16l1.711-2.935l-0.312-0.17c-0.438-0.229-0.879-0.486-1.343-0.79l-0.298-0.192l-1.548,2.659   l-0.184,0.294L40.01,58.764z"/><path d="M34.232,48.351l-0.165-0.312l-2.671,1.557l-0.264,0.179l0.96,1.649l0.193,0.275l2.93-1.708l-0.19-0.298   C34.728,49.237,34.462,48.788,34.232,48.351z"/><path d="M67.738,51.723l0.974-1.672l0.161-0.298l-2.936-1.713l-0.165,0.312c-0.221,0.414-0.469,0.84-0.795,1.341l-0.188,0.298   l2.627,1.534L67.738,51.723z"/><polygon points="49.991,18.992 48.489,20.494 48.489,40.015 48.489,41.517 63.504,41.517 65.006,40.015 63.504,38.513    51.493,38.513 51.493,20.494  "/><polygon points="66.829,59.163 64.932,57.652 49.485,45.329 47.772,75.482 56.463,68.363 64.202,85.546 69.852,83.006    62.121,65.832 73.576,64.542  "/><path d="M27.505,41.186h1.339h0.675h2.691v-2.265H29.52h-0.675h-1.339C28.1,27.012,37.948,17.5,50.004,17.5   c12.057,0,21.905,9.512,22.497,21.422h-2.172h-0.827h-1.553v2.265h1.553h0.831h2.168c-0.252,5.029-2.156,9.623-5.176,13.255   l2.319,1.852c3.656-4.414,5.856-10.073,5.856-16.242c0-14.059-11.438-25.491-25.497-25.491S24.506,25.992,24.506,40.051   c0,12.122,8.508,22.272,19.86,24.848l0.17-2.994C35.096,59.544,28.008,51.23,27.505,41.186z"/></g><text x="0" y="115" fill="#000000" font-size="5px" font-weight="bold" font-family="'Helvetica Neue', Helvetica, Arial-Unicode, Arial, Sans-serif">Created by Ed Piel</text><text x="0" y="120" fill="#000000" font-size="5px" font-weight="bold" font-family="'Helvetica Neue', Helvetica, Arial-Unicode, Arial, Sans-serif">from the Noun Project</text></svg>